<?xml version="1.0" standalone="no"?><!DOCTYPE svg PUBLIC "-//W3C//DTD SVG 1.1//EN" "http://www.w3.org/Graphics/SVG/1.1/DTD/svg11.dtd"><svg t="1555062922164" class="icon" style="" viewBox="0 0 1027 1024" version="1.1" xmlns="http://www.w3.org/2000/svg" p-id="3154" xmlns:xlink="http://www.w3.org/1999/xlink" width="128.375" height="128"><defs><style type="text/css"></style></defs><path d="M3.392 852.096h1020.352V171.904H3.392v680.192z m-3.392 3.456V168.448h1027.264v687.104H0z" fill="#353636" p-id="3155"></path><path d="M0 641.344h1023.808v50.944H0v-50.944z" fill="#FFFFFF" p-id="3156"></path><path d="M0 590.208h1023.808v51.136H0v-51.136z" fill="#B72443" p-id="3157"></path><path d="M0 746.816h1023.808v50.944H0v-50.944z" fill="#FFFFFF" p-id="3158"></path><path d="M0 801.216h1023.808v50.944H0v-50.944z m0-105.536h1023.808v51.136H0v-51.136z" fill="#B72443" p-id="3159"></path><path d="M0 539.264h1023.808v50.944H0v-50.944z" fill="#FFFFFF" p-id="3160"></path><path d="M0 379.328h1023.808v51.072H0v-51.072z" fill="#B72443" p-id="3161"></path><path d="M0 222.848h1023.808v51.008H0v-51.008z" fill="#FFFFFF" p-id="3162"></path><path d="M0 273.856h1023.808v51.072H0v-51.072z m0 210.944h1023.808v51.008H0v-51.008z m0-312.896h1023.808v51.008H0v-51.008z" fill="#B72443" p-id="3163"></path><path d="M0 328.384h1023.808v50.944H0v-50.944z m0 105.344h1023.808v51.072H0v-51.072z" fill="#FFFFFF" p-id="3164"></path><path d="M0 171.904h411.584v367.36H0v-367.36z" fill="#00477C" p-id="3165"></path><path d="M309.568 188.8l3.456 10.24h10.112l-10.176 3.456 3.328 6.784-6.72-3.392-6.848 6.784 3.456-6.784-10.24-6.848h10.24l3.392-10.24z m0 78.336l3.456 6.72h10.112l-10.176 6.848 3.328 6.784-6.72-3.392-6.848 6.848 3.456-6.784-10.24-10.24h10.24l3.392-6.784z m0 74.816l3.456 6.784h10.112l-10.176 6.848 3.328 10.112-6.72-6.784-6.848 6.784 3.456-10.112-10.24-3.456h10.24l3.392-10.176z m0 78.208l3.456 10.176h10.112l-10.176 3.392 3.328 10.176-6.72-6.72-6.848 6.784 3.456-6.72-10.24-6.784h10.24l3.392-10.304z m0 74.816l3.456 6.784h10.112L312.96 512l3.328 6.848L309.568 512l-6.848 3.456L306.176 512l-10.24-6.784h10.24l3.392-10.24zM241.472 188.8v10.24h10.24l-6.784 3.456 3.392 6.784-6.848-3.392-6.784 6.784 3.456-6.784-10.24-6.848h6.72l6.848-10.24z m0 78.336v6.72h10.24l-6.784 6.848 3.392 6.784-6.848-3.392-6.784 6.848 3.456-6.784-10.176-10.24h6.72l6.784-6.784z m0 74.816v10.176h10.24l-6.784 3.456 3.392 10.112-6.848-6.784-6.784 6.784 3.456-10.112-10.24-3.456h6.72l6.848-10.176z m0 78.208v10.176h10.24l-6.784 3.392 3.392 10.176-6.848-6.72-6.784 6.784 3.456-6.72-10.24-6.848h6.72l6.848-10.24z m0 74.816v10.176h10.24L244.928 512l3.392 6.848L241.472 512l-6.784 3.456V512l-6.784-6.784h6.72l6.848-10.24zM173.504 188.8v10.24h10.176l-6.848 3.456 3.456 6.784-6.784-3.392-10.24 6.784 3.392-6.784-6.72-6.848h10.176l3.392-10.24z m0 78.336v6.72h10.176l-6.848 6.848 3.456 6.784-6.784-3.392-10.24 6.848 3.392-6.784-6.72-10.24h10.176l3.392-6.784z m0 74.816v10.176h10.176l-6.848 3.456 3.456 10.112-6.784-6.784-10.24 6.784 3.392-10.112-6.72-3.456h10.176l3.392-10.176z m0 78.208v10.176h10.176l-6.848 3.392 3.456 10.176-6.784-6.72-10.24 6.784 3.392-6.72-6.72-6.848h10.176l3.392-10.24z m0 74.816v10.176h10.176L176.832 512l3.456 6.848L173.504 512l-6.848 3.456V512l-6.72-6.784h10.176l3.392-10.24zM102.016 188.8l3.456 10.24h6.72l-3.328 3.456 3.392 6.784-10.24-3.392-6.784 6.784 3.456-6.784-6.912-6.848h10.24v-10.24z m0 78.336l3.456 6.72h6.72l-3.328 6.848 3.392 6.784-10.24-3.392-6.784 6.848 3.456-6.784-6.848-10.24h10.24v-6.784z m0 74.816l3.456 10.176h6.72l-3.328 3.456 3.392 10.112-10.24-6.784-6.784 6.784 3.456-10.112-6.912-3.456h10.24v-10.176z m0 78.208l3.456 10.176h6.72l-3.328 3.392 3.392 10.176-10.24-6.72-6.784 6.784 3.456-6.72-6.912-6.848h10.24v-10.24z m0 74.816l3.456 10.176h6.72L108.864 512l3.392 6.848L102.016 512l-6.784 3.456L98.688 512l-6.912-6.784h10.24v-10.24zM34.048 188.8l3.392 10.24h10.176l-10.176 3.456 3.392 6.784-6.784-3.392-6.912 6.784 3.456-6.784-6.784-6.848h10.24v-10.24z m0 78.336l3.392 6.72h10.176l-10.176 6.848 3.392 6.784-6.784-3.392-6.912 6.848 3.456-6.784-6.784-10.24h10.24v-6.784z m0 74.816l3.392 10.176h10.176l-10.176 3.456 3.392 10.112-6.784-6.784-6.912 6.784 3.456-10.112-6.784-3.456h10.24v-10.176z m0 78.208l3.392 10.24h10.176l-10.176 3.328 3.392 10.176-6.784-6.72-6.912 6.784 3.456-6.72-6.784-6.848h10.24v-10.24z m0 74.816l3.392 10.24h10.176L37.44 512l3.392 6.848L34.048 512l-6.912 3.456L30.592 512l-6.784-6.784h10.24v-10.24z m309.504-265.28l3.392 6.784h10.24l-6.912 3.392 3.456 10.176-10.176-3.392-6.848 3.392 3.456-10.176-6.784-3.392h10.176v-6.784z m0 78.208l3.392 10.24h10.24l-6.912 3.328 3.456 6.848-10.176-3.392-6.848 3.456 3.456-6.912-6.784-6.784h10.176v-6.784z m0 78.208l3.392 6.848h10.24l-6.912 6.784 3.456 6.784-10.176-3.392-6.848 3.456 3.456-6.848-10.24-6.784h10.24l3.392-6.848z m0 74.88l3.392 6.848h10.24l-6.912 3.328 3.456 10.176-10.176-3.328-6.848 6.784 3.456-10.176-10.24-3.456h10.24l3.392-10.176zM275.456 229.696l3.456 6.784h6.72l-6.72 6.848 3.392 10.176-6.848-6.848-6.72 3.392 3.392-10.176-10.24-3.392h10.176l3.392-6.784z m0 78.208l3.456 10.24h6.72l-6.72 3.328 3.392 6.848-6.848-3.392-6.72 3.456 3.392-6.848-10.24-6.848h10.176l3.392-6.784z m0 78.208l3.456 6.848h10.176l-10.176 6.784 3.392 6.784-6.848-3.392-6.72 3.456 3.392-6.784-10.24-6.848h10.176l3.392-6.848z m0 74.88v10.176h10.176l-6.72 3.456 3.392 10.176-6.848-6.784-10.176 6.784 3.456-10.176-6.848-3.456h10.176l3.392-10.176zM207.488 226.24l3.392 10.24h10.176l-10.176 3.392 3.456 6.784-6.848-3.328-6.848 3.328 3.392-6.784-10.112-6.784h10.112l3.456-6.848z m0 78.272l3.392 6.784h10.176l-10.176 6.848 3.456 6.784-6.848-3.456-6.848 6.912 3.392-6.848-10.112-10.24h10.112l3.456-6.784z m0 78.208l3.392 6.848h6.784l-6.784 6.784 3.456 10.176-6.848-6.784-10.24 3.392 3.392-10.176-6.72-3.392h10.112l3.456-6.848z m-3.456 74.752l3.456 10.368h10.176l-6.784 3.328 3.456 6.784-10.24-3.392-6.848 6.784 3.392-6.72-6.72-6.784h10.112v-10.368zM139.456 226.24v6.784h10.176l-6.784 6.848 3.392 10.176-6.784-6.72-6.784 3.328v-6.784l-6.848-6.784H136l3.456-6.848z m0 78.272v6.784h10.176l-6.784 6.848 3.392 6.784-6.784-3.456-6.784 3.456 3.392-6.784-10.24-6.848H136l3.456-6.784zM136.064 382.72l3.456 6.784h10.176l-6.848 6.848 3.392 10.24-10.176-6.848-6.784 3.392 3.392-10.176-6.848-3.392H136V382.72z m0 74.752l3.392 10.368h10.176l-6.784 3.328 3.392 6.848-10.176-3.392-6.784 6.72 3.392-6.72-6.848-6.784H136v-10.368zM68.032 222.848l3.392 10.176h10.176l-6.784 3.456 3.456 6.784-10.24-3.392-6.784 6.784 3.392-6.784-6.848-6.784h10.24v-10.24z m0 78.208l3.392 10.24h10.176l-6.784 3.392 3.456 6.784-10.24-3.328-6.784 6.784 3.392-6.784-6.848-6.848h10.24v-10.24z m0 78.272l3.392 10.24h10.176l-6.784 3.392 3.456 6.784-10.24-3.392-6.784 6.784 3.392-6.72-6.848-6.848h10.24v-10.24z m0 78.144l3.392 6.848h10.176l-10.176 6.848 3.392 6.784-6.784-3.328-6.784 3.392 3.328-10.176-6.784-3.456h6.784l3.456-6.912zM377.6 188.8l3.328 10.24h10.24l-6.848 3.456 3.392 6.784-10.112-3.392-6.784 3.456 3.264-6.848-6.72-3.456h10.24v-10.24z m0 78.336l3.328 6.72h10.24l-6.848 6.848 3.392 6.784-10.112-3.392-6.784 3.392 3.264-6.784-10.112-6.848h10.112l3.52-6.72z m0 74.816l3.328 6.784h10.24l-6.848 3.392 3.392 10.24-10.112-3.456-6.784 6.784 3.264-10.112-6.72-3.456h10.24v-10.176z m0 78.208l3.328 10.176h10.24l-6.848 3.392v10.176l-6.72-6.72-6.784 6.784 3.264-6.784-6.72-3.456h10.24v-13.568z m0 74.816l3.328 6.784h10.24l-10.24 10.24 3.392 6.848L377.6 512l-6.784 3.456 3.264-6.848-6.72-6.784h10.24v-6.848z" fill="#FFFFFF" p-id="3166"></path></svg>