<?xml version="1.0" standalone="no"?><!DOCTYPE svg PUBLIC "-//W3C//DTD SVG 1.1//EN" "http://www.w3.org/Graphics/SVG/1.1/DTD/svg11.dtd"><svg t="1555062938094" class="icon" style="" viewBox="0 0 1024 1024" version="1.1" xmlns="http://www.w3.org/2000/svg" p-id="3419" xmlns:xlink="http://www.w3.org/1999/xlink" width="128" height="128"><defs><style type="text/css"></style></defs><path d="M0 175.104h1023.872v673.728H0V175.104z" fill="#1B2F64" p-id="3420"></path><path d="M1023.872 411.648H610.816V175.104H409.984v236.544H0V612.48h409.984v236.352h200.832V612.48h413.056V411.648z" fill="#FFFFFF" p-id="3421"></path><path d="M1023.872 771.904L114.88 175.104H0V252.8l908.16 596.032h115.712v-76.928z" fill="#FFFFFF" p-id="3422"></path><path d="M0 771.904l909.056-596.736h114.816V252.8l-908.16 596.032H0v-76.928z" fill="#FFFFFF" p-id="3423"></path><path d="M1023.872 453.76H568.704V175.104H452.16V453.76H0v116.48h452.16v278.592h116.544V570.304h455.168V453.76z" fill="#C31C2C" p-id="3424"></path><path d="M1023.872 848.896v-52.992L742.208 612.48h-79.232L1024 848.896h-0.128z m0-673.728h-79.104L610.816 391.808v19.84h49.6L1024 175.168h-0.128zM358.016 612.48L0 847.232v1.6h76.032l333.952-218.24v-18.176l-51.968 0.064zM0 175.168v52.864l280.256 183.616h80.192L0 175.168z" fill="#C31C2C" p-id="3425"></path></svg>